# xmcd
#
# Track frame offsets:
#	150
#	17699
#	32215
#
# Disc length: 652 seconds
#
# Revision: 0
# Processed by: cddbd v1.5.2PL0 Copyright (c) Steve Scherf et al.
# Submitted via: audiograbber 1.83.01
#
DISCID=1b028a03
DTITLE=Two Hearts - Julen nærmer sig
DYEAR=2002
DGENRE=Christmas
TTITLE0=Julen nærmer sig (2002)
TTITLE1=Ønskelisten (2002)
TTITLE2=Jul i Dannevang (2002)
EXTD=
EXTT0=
EXTT1=
EXTT2=
PLAYORDER=
